/* XPM */
static char * radar10_xpm[] = {
"160 100 23 1",
" 	c #8484FFFFFFFF",
".	c #636321210000",
"X	c #C6C6C6C6C6C6",
"o	c #424273730000",
"O	c #010101010101",
"+	c #848484848484",
"@	c #F7F794947373",
"#	c #737373737B7B",
"$	c #FFFF00000000",
"%	c #292942423939",
"&	c #8C8C4A4A2121",
"*	c #000052524242",
"=	c #424252525252",
"-	c #FFFFFFFF0000",
";	c #292918180808",
":	c #F7F7E7E70000",
"?	c #FFFFFFFFFFFF",
">	c #00007B7B0000",
",	c #42420000FFFF",
"<	c #FFFF84844242",
"1	c #000042424242",
"2	c #0000FFFFFFFF",
"3	c #0000B5B55A5A",
"                                                                                                                                                                ",
"                                                                                                     .........                                                  ",
"                                                                                                       ........  X                                              ",
"                                                                                      ...            oo  O  O    +                                              ",
"                                                                                     ......          .@  O..O.#+ #                                              ",
"                                                                                     .$$$...      .$$Xoo.O..O..#+%                                              ",
"                                                                                    ..$.$$$.........$.$.O..O...%#%                                              ",
"                                                                                    .....&&$$$$$$.......O..O..$*#%%                                             ",
"                                                                                    ..$$&&&&&&&&&$$$$$$O$$O$$$$%#%                                              ",
"                                                                                     ...     &&&&&&&&&&O&&O&&.&%=%                                              ",
"                                                                                      .          &&&........&&&= #                                              ",
"                                                                                                     .......   % +                                              ",
"                                                                                                        O  O  O% X                                              ",
"                                                                                                        % %#                                                    ",
"                                                                                                       %#%#+%                                                   ",
"                                                                                                       %#%#%%                                                   ",
"                                                                                                        % %#                                                    ",
"                                                                                                                                                                ",
"                                                                                                                                                                ",
"                            ++++++++++++++++++++++++++++++++++++++++++++++++++++++++++++++++++++++++++++++++++++++++++++++++++++++++                            ",
"                            +XXXX++++++++++++++++++++++++++++++++++++++++++++++++++++++++++++++++++++++++++++++++++++++++++++++XXXX+                            ",
"                            +XXX++++++++++++++++++++++++++++++++++++++++++++++++++++++++++++++++++++++++++++++++++++++++++++++++XXX+                            ",
"                            +XX+++++++++++++++++++++++++++++++++++++++++++++++++++++++++++++++++++++++++++++++---++++++++++++++++XX+                            ",
"                            +X++++++++++++++++++++++++--+++++++++++++++++++++++++++++++++++++++++++-------++++----++++++++++++++++X+                            ",
"                            ++++++++++++++++++++++++-----++++++++++++++++++++++++++++++++++++++++---------+++-----++++++++++++++++++                            ",
"                            +++++++++++++++++++++++-------+++++++++++++++++++++++++++++++++++++-----------++++----++++++++++++++++++                            ",
"                            ++++++++++++++++++++++--------+++++++++++++++++++++++++++++++++++--------------+++---+++++++++++++++++++                            ",
"                            ++++++++++++++++++++++--+++---++++++++++++++++++++++++++++++++++----++++++----++++++++++++++++++++++++++                            ",
"                            ++++++++++++++++++++++--+++++-+----+---+++------++++------+++++---++++++++++--+++++++-++++--+++++--+++++                            ",
"                            +++++++++++++++++++++--++++++++--------++--------++--------++++--+++++++++++--+++-----+++----++-----++++                            ",
"                            +++++++++++++++++++++--++++++++--------+----+----+----+----+++--++++++++++++-+++------+++----+++----++++                            ",
"                            +++++++++++++++++++++--++++++++-----+-++----++---+----++---++--+++++++++++++++++++----+++-----++----++++                            ",
"                            +++++++++++++++++++++--++++++++----+++++----++---+----++---++--+++++++++++++++++++----++++----++----++++                            ",
"                            +++++++++++++++++-----------+++----+++++-------+++-------++++--+++++++++++++++++++----++++----+----+++++                            ",
"                            ++++++++++++++++-------------++----+++++----++++++----++++++---+++++++++++++++++++----++++--------++++++                            ",
"                            +++++++++++++++------------++++------+++-----++--+-----++--+---+++++++++++++++++++----+++++-----++++++++                            ",
"                            ++++++++++++++-------++++++++++-----+++++-------+++-------++----++++++++++++++++++----+++++-----++++++++                            ",
"                            ++--+++++++++++++++--+++++++++++----+++++-----+++++-----++++------++++++++++++++++----+++++----+++++++++                            ",
"                            +-------++++++++----++++++++++++++++++++++++++++++++++++++++--------++++++++++++++---+++++++-+++++++++++                            ",
"                            +------------------++++++++++++++++++++++++++++++++++++++++++------------+++++++++++++++++++++++++++++++                            ",
"                            ++---------------++++++++++++++++++++++++++++++++++++++++++++--------------------+++++++++++++++++++++++                            ",
"                            +++-------------+++++++++++++++++++++++++++++++++++++++++++++++-----------------++++++++++++++++++++++++                            ",
"                            +++++----------+++++++++++++++++++++++++++++++++++++++++++++++++----------------++++++++++++++++++++++++                            ",
"                            +++++++------+++++++++++++++++++++++++++++++++++++++++++++++++++++-----------+++++++++++++++++++++++++++                            ",
"                            ++++++++++++++++++++++++++++++++++++++++++++++++++++++++++++++++++++++++++++++++++++++++++++++++++++++++                            ",
"                            ++++++++++++++++++++++++++++++++++++++++++++++++++++++++++++++++++++++++++++++++++++++++++++++++++++++++                            ",
"                            ++++++++++++++++++++++++++++++++++++++++++++++++++++++++++++++++++++++++++++++++++++++++++++++++++++++++                            ",
"                            ++++++++++++++++++++++++++++++++++++++++++++++++++++++++++++++++++++++++++++++++++++++++++++++++++++++++                            ",
"                            ++++++++++++++++++++++++++++++++++++++++++++++++++++++++++++++++++++++++++++++++++++++++++++++++++++++++                            ",
"                            ++++++++++++++++++++++++++++++++++++++++++++++++++++++++++++++++++++++++++++++++++++++++++++++++++++++++                            ",
"                            ++++++++++++++++++++++++++++++++++++++++++++++++++++++++++++++++++++++++++++++++++++++++++++++++++++++++                            ",
"                            ++++++++++++++++++++++++++++++++++++++++++++++++++++++++++++++++++++++++++++++++++++++++++++++++++++++++                            ",
"                            ++++++++++++++++++++++++++++++$$$$$$++++++++++$$++++++++++++++++++++++++++++++++++++++++++++++++++++++++                            ",
"                            ++++++++++++++++++++++++++++++$$+++$$+++++++++$$++++++++++++++++++++++++++++++++++++++++++++++++++++++++                            ",
"                            ++++++++++++++++++++++++++++++$$+++$$+++++++++$$++++++++++++++++++++++++++++++++++++++++++++++++++++++++                            ",
"                            ++++++++++++++++++++++++++++++$$+++$$+++$$$$++$$++$$$$+++$$$$+++$$$+++$$$$++++++++++++++++++++++++++++++                            ",
"                            ++++++++++++++++++++++++++++++$$$$$$+++$$++$$+$$+$$++$$+++++$$+$$+$$+$$++$$+++++++++++++++++++++++++++++                            ",
"                            ++++++++++++++++++++++++++++++$$+++$$++$$$$$$+$$+$$$$$$++$$$$$++$$+++$$$$$$+++++++++++++++++++++++++++++                            ",
"                            ++++++++++++++++++++++++++++++$$+++$$++$$+++++$$+$$+++++$$++$$+++$$++$$+++++++++++++++++++++++++++++++++                            ",
"                            ++++++++++++++++++++++++++++++$$+++$$++$$++$$+$$+$$++$$+$$++$$+$$+$$+$$++$$+++++++++++++++++++++++++++++                            ",
"                            ++++++++++++++++++++++++++++++$$+++$$+++$$$$++$$++$$$$+++$$$$$++$$$+++$$$$++++++++++++++++++++++++++++++                            ",
"                            ++++++++++++++++++++++++++++++++++++++++++++++++++++++++++++++++++++++++++++++++++++++++++++++++++++++++                            ",
"                            ++++++++++++++++++++++++++++++++++++++++++++++++++++++++++++++++++++++++++++++++++++++++++++++++++++++++                            ",
"                            ++++++++++++++++++++++++++++++++++++++++++++++++++++++++++++++++++++++++++++++++++++++++++++++++++++++++                            ",
"                            ++++++++++++++++++++++++++++++++++++++++++++++++++++++++++++++++++++++++++++++++++++++++++++++++++++++++                            ",
"                            ++++++++++++++++++++++++++++++++++++++++++++++++++++++++++++++++++++++++++++++++++++++++++++++++++++++++X                           ",
"O             ;;;           ++++++++++++++++++++++++++++++$$++++$$++++++++++++++++++++++$$++++++++$$$$++++++++++++++++++++++++++++++                            ",
"OO     OO    ;;;;;    ;;;   ++++++++++++++++++++++++++++++$$++++$$++++++++++++++++++++$$$$+++++++$$++$$+++++++++++++++++++++++++++++X                           ",
" OO     OO   .@@@.   ;;;;;  +++++++++++++++++++++++++++++++$$++$$+++++++++++++++++++++++$$+++++++$$++$$+++++++++++++++++++++++++++++#XX                         ",
" OOOO    OO @@@@@.   .@@@.  +++++++++++++++++++++++++++++++$$++$$+++$$$$++$$$+++++++++++$$+++++++$$++$$+++++++++++++++++++++++++++++ X                          ",
"  OOOO   OOOO@@OO   @@@@@.  ++;;;++++++++++++++++++++++++++$$++$$++$$++$$+$$++++++++++++$$+++++++$$++$$+++++++++++++++++++++++++++++    XX                      ",
"  = OOO   OOOO@#OO   @@@@   +;;;;;++++++++++++++++++++++++++$$$$+++$$$$$$+$$++++++++++++$$+++++++$$++$$+++++++++++++++++++++++++++++  ##XXXX                    ",
"  ==  OOO = OOO;;OO  @@#;;  +.@@@.++++++++++++++++++++++++++$$$$+++$$+++++$$++++++++++++$$+++++++$$++$$+++++++++++++++++++++++++++++     #X XX                  ",
"   =   OOO== ;OOOOOOO ;;;;  +@@@@.+++++++++++++++++++++++++++$$++++$$++$$+$$++++++++++++$$+++++++$$++$$+++++++++++++++++++++++++++++      #X XX                 ",
"   ===OOOOO= =;OOOOOOO;;:;;=#@@@@++++++++++++++++++++++++++++$$+++++$$$$++$$++$$++++++++$$+++$$+++$$$$++++++++++++++++++++++++++++++       # #XX#               ",
"    ==   OO===OOOO==OOO;;;;==@@#;;++++++++++++++++++++++++++++++++++++++++++++++++++++++++++++++++++++++++++++++++++++++++++++++++++          OOO               ",
"     ==  OOO==o;;O===;OOO;;===;;;;++++++++++++++++++++++++++++++++++++++++++++++++++++++++++++++++++++++++++++++++++++++++++++++++X+          $$$               ",
"      ==   ;;==;;OO=;;oOOOOO=;;;:;;=#++++++++++++++++++++++++++++++++++++++++++++++++++++++++++++++++++++++++++++++++++++++++++++XX+          OOO               ",
"       ====;;;==;;;===OOOOO===;;;;;====+++++++++++++++++++++++++++++++++++++++++++++++++++++++++++++++++++++++++++++++++++++++++XXX+          OOO               ",
"          ;;;;;====;==;;;OOO=;;;;;;====++++++++++++++++++++++++++++++++++++++++++++++++++++++++++++++++++++++++++++++++++++++++XXXX+     %    %%%%              ",
"          %;;;;;;;;;;==;;OOO;;o;;;;====+++++++++++++++++++++++++++++++++++++++++++++++++++++++++++++++++++++++++++++++++++++++++++++     % %  %##%%             ",
"           ;;;;;;;%;;;==;;;;;;;;;;;=====                                    XX++                                                XX++     % %  %##?%             ",
"           ;;;;;;;;;;;;====;;;;;;;;=====                                    XX++                                                XX++OOOO#%#% %%##X###OOOX       ",
"            ;;;;;;;;;;;;;;;;;;;;;;;====                                     XX++                                                XX++   ##% %%###X%###           ",
"            %;;;;;> ;;;;;;%;;;;;;;;==#                                      XX++                                                XX++ #%%%%%%###X%####           ",
"            ;;;;;#  %;;;;;>;;;;;;;;==                                       XX++                                                XX++ %##X%%%%%%%%##%###OOOX     ",
",,          ;;;;;=  ;;;;;# ;;;;;;;;;=                                       XX++                                                XX++X%#X%#####<#<######         ",
",,,,,,,,,,,%;;;;;;,,;;;;;=,+;;;;;;;;,,,,,,,,,,,,,,,,,,,,                    XX++                                                XX++#%X%######>#>####%%%%%%%11  ",
",,,,,,,,,,,,;;;;;;;%;;;;;;,+%;;;;;>,=,,,,,,,,2,,,,,,,,,,,,,,,,,,,,,,,,,,,,,,XX++,,,,,,,,,,,,,,,,,,,,,,,,,,,,,,,,,,,,,,,,,,,,,,,,XX++X%%%%%%%%%%%%%%%%%######+%  ",
",,,,,2,,,,,,%;;;;;;,;;;;;;;+;;;;;#,,=,,,,,,,,,,,,,,2,,,,,,,,,,,,,,,,,2,,,,,,XX++,,,,,,,,,,2,,,,,,,,,,,,,2,,,,,,,,,,,,,,,,,,,,,,,XX++%####################?##%,,,",
",22,,,,,,,,,=;;;;;;,%;;;;;;+;;;;;=,,=,,,,,22,,,,,,2,,,,,,,,,,,,,,,,,,,,,,,,,XX++,,2,,,,,,,,,,,,,,,,,,,,,,,,,,,,,,,,,,,,,,,,,2,,,XX++#######################%,,,2",
",,,,,,,,,,,,=;;#;;;,=;;;;;;%;;;;;;,,=,,,,,,,,,,,,,,,,,,,,,,,,,,2,,,,,,,,,,,,XX++,,,,,,,,,,,,,,,,,,22,,,,,,,,,,,,,,,,,,,,,,,,,,,,XX++##2#####2############2%2,2,,",
",,,,,,,,,,,,#;;,;;;,=;;#;;;+;;;;;;;,,,,,,,,,,,,,,,,,,,,,,,,,,,,,,,,,,,,,,,,,XX++,,,,,,,,,,,,,,,,,,,,,,,,,,,,,,,,,,,,,2,,,,,,,,,,XX++%%%,,%%%%,%%,%%%%%%%2,,,,,,,",
"3,,,,,,,33333OO33OO3#;;3;;;+%;;;;;;333333333,,,,,,,,,,,,,,,,,,,,,,,,,,,,,,,,XX++,,,,,,,,,,,,,,,,,,,,,,,,,,,2,,,,,,,,,,,,,,,,,,,,XX++,,,2,,,,,2,,,,,,,,,,,,2,,,,,",
">33,,,33>>>OOOOOOOOO>OO>>OO+=;;;;;;>>>>>>>>>333333333333,,,,,,,,,,,,,,,,,,,,XX++,,,,,,,,,,,,,,,,,,,,,,,,,,,,,,,,,,,,,,,,,,,,,,,,XX++,,,,,,,,,,,,,,,,2,,,,,,,,2,,",
">>>333>>>>>OOOOOOOOOOOOOOOOO=;;#;;;>>>>>>>>>>>>>>>>>>>>>33333333333333333333XX++333333333333333333333333333333333333333333333333XX++3333333333333,,,,,,,,,,,,,,,",
"3>>>>>>>>3>>>>>>>>>OOOOOOOOO#;;>;;;>33>3>>>>>>33>>>33>>>>>33>>>>>>>>>33>>>3&XX++&>>3>>>>>>>>>>33>>3>3>>3>>>>>3>>>>>>>33>>>>>>>>&XX++&3>>>>>>>>>>>333333333333333",
"3>>>33>>>>>>>>>>>>>>>>>>>>>>>OO>>OO>>>3>>3>>>3>>>>>>>>>3>>>>>>3>>>3>>>3>>>>>&&&&&>>>>>>>>3>>>>>>>>>>>>>>>>>>>>>>>>3>>>>>>>>3>>>>&3&&>>>>>>3>>>3>>>>>>>>>>>>>>>>>",
">>>>>>>>3>>>>>>3>>>>>3>>>>>OOOOOOOOO>>3>>>>>>>>>>>3>>>>>>>3>3>>>>>>3>>>>>>3>>3>>>>3>>3>>>>>>3>>>>33>>3>>>>3>>>>>3>>>>>>3>>>>>>>>>>>>>>3>>>>>>>>3>>>>>>3>>>>3>>>3",
">>>>>>>>>>>>3>>>>>>>>>>>>>>OOOOOOOOO>>3>>>>>>>>>>>>>>>>>>>>>>>>>>>>3>>>>>>>>>>>>>>>>>>>>>>>>>>>>>>>>>>>>>>>>>>>>>>>>>>>>>>>>>>33>>>3>>>>>>>>3>>>>>>3>>>>3>>>>3>>"};
